<svg xmlns="http://www.w3.org/2000/svg" viewBox="0 0 980.31 235.55"><defs><style>.cls-1{fill:#0d3557;}.cls-2,.cls-3{fill:#4fbb7d;}.cls-3{font-size:56.22px;font-family:TwCenMT-Regular, Tw Cen MT;}.cls-4{fill:none;stroke:#231f20;stroke-miterlimit:10;stroke-width:6px;}</style></defs><g id="Layer_2" data-name="Layer 2"><g id="Layer_1-2" data-name="Layer 1"><path class="cls-1" d="M87.06,90.68c-.32-12.07.76-29.61,15.19-44.85-2.52-2.92-5.06-5.84-7.57-8.78-5.58-6.54-9.12-14.22-12.25-22.11a49.82,49.82,0,0,1-1.76-4.68c-.72-2.47.23-4.11,2.61-4.81s4.53.22,5.21,2.65a34.11,34.11,0,0,0,8,14.19c4.86,5.22,10.44,9.42,17.81,10.06a27.49,27.49,0,0,0,9.17-.76A28.84,28.84,0,0,0,142.9,15.92c1.24-2.5,2.31-5.1,3.35-7.69,1.17-2.93,2.73-3.76,5.35-2.67,2.29,1,3.1,3.13,1.93,5.65-3.27,7-6.49,14.07-9.93,21a46.11,46.11,0,0,0-4.95,15.39c-.14,1.24-.86,1.51-1.81,1.79a94.24,94.24,0,0,0-19.73,8.32C104,65.05,94.42,75.74,87.8,89.17Z"/><path class="cls-1" d="M156,105c14.71,8,26.06,18.83,30.76,35.4,3.79-.72,7.47-1.38,11.13-2.13,8.39-1.7,16.76-.94,25.12.2,1.77.24,3.55.47,5.29.86,2.69.58,3.67,2.14,3.11,4.66a3.88,3.88,0,0,1-4.88,3.26c-1.59-.29-3.15-.71-4.75-.85-9-.79-17.39,1.13-24.68,6.56s-9.42,13-9.48,21.57,4,15.17,9,21.5c.41.51.85,1,1.26,1.52,1.74,2.19,1.61,3.88-.42,5.56a3.74,3.74,0,0,1-5.77-.76c-4.37-6.11-8.78-12.21-12.93-18.47a53.13,53.13,0,0,0-11.59-13.06,2.28,2.28,0,0,1-.51-1.91,100.48,100.48,0,0,0,2.55-24.32c-.3-13.89-4.78-26.39-12.35-37.9-.29-.45-.59-.89-.87-1.35C156,105.33,156,105.26,156,105Z"/><path class="cls-1" d="M75.8,115.86C64.86,103.18,58,89.07,59.46,72c-5.2-1-10.25-1.78-15.24-2.93C36.59,67.3,29.75,63.62,23,59.87c-.94-.52-1.91-1-2.79-1.6C17.92,56.76,17.56,55,19,52.79s3.56-2.75,5.68-1.28a33.51,33.51,0,0,0,14,5.63c8.52,1.36,16.88,1,23.66-5.07,8.29-7.43,11.56-16.89,9.5-27.93a90.25,90.25,0,0,0-2.58-9.47c-.84-2.77-.17-4.43,2.31-5.25s4.5.28,5.19,2.93c2.17,8.35,4.06,16.79,6.47,25.08a90.69,90.69,0,0,0,5.11,12.32,2.4,2.4,0,0,1,0,2.82C81.88,62.18,77,72.46,74.79,83.87a72.64,72.64,0,0,0,1,30.71c.06.28.16.57.21.86C76,115.53,75.89,115.64,75.8,115.86Z"/><path class="cls-1" d="M106.92,190.76c1.85,5.32,3.77,10.39,5.37,15.55,1.8,5.79,2.18,11.83,2.41,17.86.1,2.5.31,5,.16,7.51-.21,3.33-3.32,4.84-6.23,3.2-1.61-.92-2-2.4-1.85-4.14a35.88,35.88,0,0,0-7.31-24c-5.73-7.75-13.57-10.57-23-9.84s-16.37,5.67-22.38,12.42c-.64.71-1.23,1.46-1.88,2.16-1.68,1.81-3.36,2-5.18.52a3.81,3.81,0,0,1-1-5.39,7,7,0,0,1,1-1.2c5.71-5.61,11.38-11.25,17.15-16.8a41.64,41.64,0,0,0,8.64-11.1c.89-1.75,1.91-1.94,3.62-1.84,11.73.7,23.24-.52,34.31-4.67a72.52,72.52,0,0,0,24.42-15.59c.35-.33.7-.65,1.06-1,0,0,.09,0,.29,0C131.15,170.3,122.44,183.35,106.92,190.76Z"/><path class="cls-1" d="M155.32,133.21c6.06,15.73,7.75,31.31.57,47.1,2.8,1.55,5.53,3.11,8.29,4.59,9.74,5.22,17.1,13.11,24.07,21.42,1.76,2.11,1.4,4.07-.78,5.68a3.81,3.81,0,0,1-5.77-.88,35.52,35.52,0,0,0-24.59-14.47c-7.55-1-13.91,1.78-19.45,6.78-6.38,5.75-9.48,13-10,21.46-.14,2.08-.22,4.17-.3,6.26-.1,2.65-1.34,3.9-3.86,3.85a3.91,3.91,0,0,1-4-4.33c.71-7.84,1.42-15.68,2.31-23.51a47.84,47.84,0,0,0-.45-15.66,2.45,2.45,0,0,1,1.17-2.94c10.43-7.83,19.35-17,25.25-28.82a72.7,72.7,0,0,0,7.13-24.42c.05-.47.13-.94.21-1.41C155.12,133.74,155.2,133.58,155.32,133.21Z"/><path class="cls-1" d="M197.87,38.66a14.17,14.17,0,1,1-14.1-14.18A14.14,14.14,0,0,1,197.87,38.66Z"/><path class="cls-1" d="M.68,100.3a14.17,14.17,0,1,1,14.19,14.24A14.17,14.17,0,0,1,.68,100.3Z"/><path class="cls-1" d="M233.37,99.79a14.17,14.17,0,0,1-28.34.07,14.23,14.23,0,0,1,14.08-14.21A14.09,14.09,0,0,1,233.37,99.79Z"/><path class="cls-2" d="M0,130.46a4.64,4.64,0,0,1,4.22-3,35.58,35.58,0,0,0,22.85-12.18c6.69-7.54,7.28-16.22,4.35-25.49-2.23-7.08-6.93-12.12-12.89-16.19-1.48-1-3-1.95-4.53-2.87-2.76-1.67-3.31-3.32-1.83-5.69s3.6-2.6,6-.94c5.06,3.49,10.06,7.07,15.13,10.54q6.18,4.23,12.49,8.28a9.21,9.21,0,0,0,3.44,1.45c3,.47,3.5,2.4,3.86,5,2.09,15.27,6.94,29.5,17.43,41.17,3.73,4.15,8.15,7.68,12.26,11.47a9.48,9.48,0,0,1,1.27,1.19c-16.45-2.38-30.69-8.73-40.77-22.78-1.66,1-3.29,2-4.85,3-10,6.7-21.31,10-33,12-3.25.56-4.07.08-5.42-2.87Z"/><path class="cls-2" d="M234,131.53c-1.4,3.65-2.62,4.33-6.36,3.3q-11.55-3.17-23.07-6.43a44.86,44.86,0,0,0-14.14-1.85,2.19,2.19,0,0,1-2.43-1.44c-5.9-11.63-13.36-22-23.93-29.93a73.84,73.84,0,0,0-23.81-11.65c-.28-.08-.56-.19-.83-.29,0,0-.06-.1-.08-.15,14.21-3.1,30.34-3.11,46.21,7.43q3.57-4.32,7.13-8.67c6.6-8.06,15.26-13.47,24.08-18.63,2.39-1.4,4.24-.68,5.45,1.76s.5,4.38-2,5.6a35.28,35.28,0,0,0-15.31,14.6c-6.4,11.17-5.05,22,3.61,31.79,5.07,5.71,11.7,8.21,18.82,9.88a27.72,27.72,0,0,0,3,.59A4.29,4.29,0,0,1,234,130.1Z"/><path class="cls-2" d="M118.63,0l2.54.73a14.24,14.24,0,0,1,9.93,16.62c-1.54,7.36-8.52,12.07-16.25,11a14.12,14.12,0,0,1-11.73-15A14,14,0,0,1,113.57.67c.74-.21,1.46-.45,2.19-.67Z"/><path class="cls-2" d="M111.37,77.9c10.73-13.43,23.36-22.78,40.52-24.52,0-3,.12-5.94,0-8.84-.54-11.22,2.61-21.71,6.28-32.08.95-2.68,2.75-3.41,5.21-2.41s3.36,3.07,2.24,5.67a35.55,35.55,0,0,0-1,25.86c3.24,9.94,10.71,14.87,20.61,16.87,7.57,1.52,14.41-.48,21.05-3.78,1.44-.72,2.82-1.56,4.25-2.31,2.15-1.12,3.64-.75,4.92,1.16a3.85,3.85,0,0,1-.72,5.43,5.56,5.56,0,0,1-1.22.73c-7.09,3.27-14.13,6.64-21.28,9.78a47.63,47.63,0,0,0-13.41,8.44,1.81,1.81,0,0,1-2.32.34,87.62,87.62,0,0,0-31.09-7.59C133.62,70.15,122.51,72.8,111.37,77.9Z"/><path class="cls-2" d="M108.66,158.3c-14.39,8.65-29.48,12.89-46.3,8.53-.66,2-1.31,3.79-1.88,5.65C57,184,50.39,193.61,42.73,202.63c-2.12,2.49-4,2.71-6.1.8s-2-4,.15-6.36c7.81-8.73,11.22-18.84,9.08-30.51a20.09,20.09,0,0,0-5.53-10.27c-6.91-7.24-15.31-10.76-25.41-9.83-2.37.22-4.74.52-7.1.82-3.08.39-4.54-.65-4.88-3.5-.27-2.33,1.45-4.15,4.15-4.36,9.4-.71,18.82-1.25,28.19-2.21,3.51-.36,6.95-1.58,10.36-2.62a2.32,2.32,0,0,1,2.76.54c8.92,8.45,18.81,15.43,30.56,19.43a70.8,70.8,0,0,0,28.38,3.58c.3,0,.6,0,.89,0C108.32,158.09,108.41,158.18,108.66,158.3Z"/><path class="cls-2" d="M206.7,183.19a14.17,14.17,0,1,1,.22-28.34A14.32,14.32,0,0,1,221,169.08,14.17,14.17,0,0,1,206.7,183.19Z"/><path class="cls-2" d="M96.09,215.45a14.17,14.17,0,0,1-28.34-.18,14.17,14.17,0,1,1,28.34.18Z"/><path class="cls-2" d="M65,38.39A14.19,14.19,0,0,1,50.72,52.6a14.19,14.19,0,1,1,.18-28.37A14,14,0,0,1,65,38.39Z"/><path class="cls-2" d="M166.76,215.06a14.18,14.18,0,0,1-14,14.21,14.19,14.19,0,1,1,0-28.38A14.08,14.08,0,0,1,166.76,215.06Z"/><path class="cls-1" d="M27.85,183.66A14.19,14.19,0,1,1,41.8,169.32,14.21,14.21,0,0,1,27.85,183.66Z"/><path class="cls-1" d="M326.44,110.05a40.46,40.46,0,0,1-14.55-2.56,34.21,34.21,0,0,1-11.65-7.3,33.78,33.78,0,0,1-7.68-11.11,35,35,0,0,1-2.76-14,35,35,0,0,1,2.76-14,33.33,33.33,0,0,1,7.73-11.11,34.71,34.71,0,0,1,11.7-7.3,43,43,0,0,1,30.5.48,30.94,30.94,0,0,1,12,8.94l-10.15,9.28a23,23,0,0,0-7.68-6,21.65,21.65,0,0,0-9.33-2,23.14,23.14,0,0,0-8.7,1.59,20.45,20.45,0,0,0-6.86,4.5,20.15,20.15,0,0,0-4.5,6.86,25.15,25.15,0,0,0,0,17.6,20.11,20.11,0,0,0,11.36,11.35,23,23,0,0,0,8.7,1.6,21.12,21.12,0,0,0,9.33-2.08,23.51,23.51,0,0,0,7.68-6L354.47,98a31.35,31.35,0,0,1-12,9A40.09,40.09,0,0,1,326.44,110.05Z"/><path class="cls-1" d="M397.68,110.05a40.75,40.75,0,0,1-14.79-2.61,35.85,35.85,0,0,1-11.79-7.34A33.18,33.18,0,0,1,363.32,89a34.66,34.66,0,0,1-2.76-13.92,34.59,34.59,0,0,1,2.76-14A33.28,33.28,0,0,1,371.1,50a35.94,35.94,0,0,1,11.74-7.34,40.38,40.38,0,0,1,14.75-2.61,41,41,0,0,1,14.74,2.56,35.19,35.19,0,0,1,11.74,7.3A33,33,0,0,1,431.85,61a36.86,36.86,0,0,1,0,28,32.94,32.94,0,0,1-7.78,11.16,35.19,35.19,0,0,1-11.74,7.3A40.78,40.78,0,0,1,397.68,110.05Zm-.09-13.24a21.4,21.4,0,0,0,8.36-1.6,20.32,20.32,0,0,0,6.72-4.54,20.87,20.87,0,0,0,4.49-6.86,24.87,24.87,0,0,0,0-17.5,20.87,20.87,0,0,0-4.49-6.86A20.5,20.5,0,0,0,406,54.9a21.58,21.58,0,0,0-8.36-1.59,22,22,0,0,0-8.42,1.59,19.76,19.76,0,0,0-6.71,4.55A21.09,21.09,0,0,0,378,66.31a24.87,24.87,0,0,0,0,17.5,21.09,21.09,0,0,0,4.45,6.86,19.59,19.59,0,0,0,6.71,4.54A21.77,21.77,0,0,0,397.59,96.81Z"/><path class="cls-1" d="M468.73,110.05a55.69,55.69,0,0,1-15.61-2.17,36.38,36.38,0,0,1-12-5.66l5.32-11.79a37.16,37.16,0,0,0,10.25,5.07,38,38,0,0,0,12.08,2,24,24,0,0,0,7.49-1A9.35,9.35,0,0,0,480.43,94a5.61,5.61,0,0,0,1.35-3.72,5.11,5.11,0,0,0-2.13-4.31A17.49,17.49,0,0,0,474,83.32c-2.35-.67-4.92-1.32-7.69-1.93S460.76,80,458,79.17a33.69,33.69,0,0,1-7.73-3.48A16.4,16.4,0,0,1,444.61,70a17.24,17.24,0,0,1-2.08-8.84,19,19,0,0,1,3.1-10.59,21.12,21.12,0,0,1,9.42-7.63q6.33-2.85,15.9-2.85a52.27,52.27,0,0,1,12.62,1.54,37.31,37.31,0,0,1,10.87,4.45l-4.93,11.79a39.38,39.38,0,0,0-9.37-3.91,35.66,35.66,0,0,0-9.28-1.31,22.3,22.3,0,0,0-7.45,1,8.55,8.55,0,0,0-4.1,2.75A6.3,6.3,0,0,0,458,60.27a5.24,5.24,0,0,0,2.13,4.35,15.41,15.41,0,0,0,5.6,2.56c2.32.61,4.9,1.23,7.74,1.84a85.62,85.62,0,0,1,8.41,2.27,37.59,37.59,0,0,1,7.63,3.43,16.6,16.6,0,0,1,5.66,5.61,16.39,16.39,0,0,1,2.17,8.75,18.46,18.46,0,0,1-3.14,10.44,21.91,21.91,0,0,1-9.52,7.63Q478.31,110.06,468.73,110.05Z"/><path class="cls-1" d="M508,108.89V41.23h12.95L549.74,89h-6.87L571.1,41.23h13v67.66h-14.6l-.19-45.14h2.9l-22.81,37.89h-7L519.38,63.75h3.19v45.14Z"/><path class="cls-1" d="M600.2,108.89V41.23H616v67.66Z"/><path class="cls-1" d="M664.29,110.05a40.42,40.42,0,0,1-14.55-2.56,34.21,34.21,0,0,1-11.65-7.3,33.81,33.81,0,0,1-7.69-11.11,35.14,35.14,0,0,1-2.75-14,35.14,35.14,0,0,1,2.75-14,33.5,33.5,0,0,1,7.74-11.11,34.67,34.67,0,0,1,11.69-7.3,43,43,0,0,1,30.5.48,30.9,30.9,0,0,1,12,8.94l-10.15,9.28a23,23,0,0,0-7.69-6,21.57,21.57,0,0,0-9.32-2,23.14,23.14,0,0,0-8.7,1.59A20.09,20.09,0,0,0,645.1,66.26a25,25,0,0,0,0,17.6,20,20,0,0,0,11.36,11.35,23,23,0,0,0,8.7,1.6,21,21,0,0,0,9.32-2.08,23.55,23.55,0,0,0,7.69-6L692.32,98a31.31,31.31,0,0,1-12,9A40.08,40.08,0,0,1,664.29,110.05Z"/><path class="cls-1" d="M762.4,110.05a40.46,40.46,0,0,1-14.55-2.56,33.78,33.78,0,0,1-19.33-18.41,35,35,0,0,1-2.76-14,35,35,0,0,1,2.76-14,33.47,33.47,0,0,1,7.73-11.11,34.71,34.71,0,0,1,11.7-7.3,43,43,0,0,1,30.5.48,30.86,30.86,0,0,1,12,8.94l-10.15,9.28a22.86,22.86,0,0,0-7.68-6,21.65,21.65,0,0,0-9.33-2,23.14,23.14,0,0,0-8.7,1.59,20.17,20.17,0,0,0-11.36,11.36,25.15,25.15,0,0,0,0,17.6,20.11,20.11,0,0,0,11.36,11.35,23,23,0,0,0,8.7,1.6,21.12,21.12,0,0,0,9.33-2.08,23.41,23.41,0,0,0,7.68-6L790.43,98a31.28,31.28,0,0,1-12,9A40.09,40.09,0,0,1,762.4,110.05Z"/><path class="cls-1" d="M800.78,108.89V41.23h15.75v67.66Z"/><path class="cls-1" d="M846.5,108.89V54H824.85V41.23h59V54H862.16v54.9Z"/><path class="cls-1" d="M909,108.89V81.25l3.58,9.47L882.75,41.23h16.72l22.82,37.89h-9.57l22.91-37.89H950.9L921.22,90.72l3.58-9.47v27.64Z"/><text class="cls-3" transform="translate(369.58 193.2)">Live in Nature&apos;s Crown</text><line class="cls-4" x1="256.62" y1="137.54" x2="980.31" y2="137.54"/></g></g></svg>