<svg xmlns="http://www.w3.org/2000/svg" viewBox="0 0 723.69 709.76"><defs><style>.cls-1{fill:#fff;}.cls-2,.cls-3{fill:#4fbb7d;}.cls-3{font-size:56.22px;font-family:TwCenMT-Regular, Tw Cen MT;}</style></defs><g id="Layer_2" data-name="Layer 2"><g id="Layer_1-2" data-name="Layer 1"><path class="cls-1" d="M299.18,189.67c-.65-25.25,1.61-61.93,31.78-93.8-5.28-6.12-10.59-12.23-15.84-18.38-11.66-13.68-19.07-29.73-25.62-46.25-1.29-3.24-2.71-6.44-3.68-9.78-1.51-5.17.49-8.6,5.47-10.07,5.25-1.55,9.48.47,10.89,5.54A71.13,71.13,0,0,0,319,46.62c10.16,10.93,21.84,19.7,37.25,21a57.72,57.72,0,0,0,19.2-1.58C393.69,61.3,407.54,50.46,416,33.3c2.58-5.24,4.82-10.66,7-16.09,2.46-6.13,5.72-7.86,11.2-5.58,4.8,2,6.48,6.55,4,11.82-6.82,14.69-13.57,29.42-20.75,43.94-5.08,10.26-9.11,20.77-10.36,32.18-.29,2.6-1.8,3.18-3.8,3.76a197.28,197.28,0,0,0-41.25,17.39c-27.51,15.34-47.47,37.71-61.32,65.78C300.35,187.26,300,188,299.18,189.67Z"/><path class="cls-1" d="M443.44,219.67c30.78,16.77,54.51,39.37,64.34,74,7.94-1.51,15.63-2.9,23.29-4.45,17.55-3.56,35-2,52.53.4,3.71.51,7.43,1,11.07,1.8,5.62,1.23,7.67,4.47,6.51,9.75S596.27,309,591,308c-3.31-.6-6.59-1.49-9.92-1.78-18.84-1.65-36.38,2.36-51.62,13.71-15,11.15-19.72,27.11-19.84,45.13-.13,17.77,8.33,31.72,18.75,45,.85,1.08,1.77,2.11,2.62,3.18,3.66,4.58,3.39,8.11-.87,11.64-4,3.28-8.9,2.84-12.06-1.59-9.15-12.79-18.37-25.54-27-38.64-6.83-10.29-14.43-19.71-24.24-27.31-.89-.68-1.33-2.76-1.06-4A210.74,210.74,0,0,0,471,302.47c-.62-29.05-10-55.2-25.84-79.28-.61-.93-1.22-1.87-1.82-2.81C443.3,220.31,443.37,220.17,443.44,219.67Z"/><path class="cls-1" d="M275.64,242.32c-22.89-26.5-37.21-56-34.18-91.77-10.86-2.06-21.45-3.73-31.86-6.12-16-3.66-30.28-11.36-44.48-19.2-2-1.08-4-2.1-5.85-3.35-4.69-3.16-5.44-6.9-2.45-11.47s7.44-5.74,11.89-2.67A70.2,70.2,0,0,0,198,119.52c17.83,2.84,35.32,2.1,49.5-10.61,17.34-15.53,24.16-35.33,19.87-58.43-1.24-6.7-3.43-13.24-5.4-19.79-1.75-5.8-.35-9.27,4.84-11s9.41.58,10.85,6.12C282.16,43.3,286.1,61,291.13,78.28c2.58,8.88,6.81,17.31,10.69,25.77,1.05,2.3,1.41,3.63-.1,5.9-13.36,20.1-23.58,41.6-28.2,65.48-4.17,21.54-3,42.94,2,64.21.14.61.33,1.2.44,1.81C276,241.64,275.82,241.86,275.64,242.32Z"/><path class="cls-1" d="M340.73,399c3.88,11.12,7.89,21.72,11.24,32.52,3.75,12.11,4.55,24.73,5,37.34.2,5.24.66,10.51.33,15.72-.43,7-6.93,10.13-13,6.69-3.38-1.91-4.09-5-3.88-8.66,1.08-18.57-4.32-35.26-15.29-50.1-12-16.21-28.38-22.12-48.18-20.6s-34.24,11.86-46.82,26c-1.32,1.49-2.57,3.05-3.93,4.52-3.51,3.79-7,4.13-10.83,1.1s-4.6-7.29-2-11.27a16.1,16.1,0,0,1,2.21-2.53c11.94-11.73,23.81-23.53,35.87-35.12,7.17-6.9,13.6-14.38,18.08-23.24,1.85-3.66,4-4,7.57-3.83,24.54,1.45,48.6-1.1,71.76-9.77,19.31-7.24,36.13-18.49,51.08-32.62.72-.68,1.46-1.35,2.2-2,.06-.05.2,0,.61,0C391.41,356.21,373.2,383.49,340.73,399Z"/><path class="cls-1" d="M442,278.62c12.67,32.9,16.2,65.5,1.18,98.51,5.86,3.25,11.57,6.51,17.35,9.61,20.36,10.92,35.76,27.41,50.33,44.8,3.69,4.4,2.94,8.51-1.62,11.87-4.31,3.18-8.83,2.53-12.07-1.83-12.9-17.32-30.17-27.38-51.44-30.27-15.79-2.14-29.08,3.73-40.68,14.18-13.33,12-19.82,27.21-21,44.89-.29,4.36-.45,8.73-.61,13.09-.21,5.55-2.81,8.16-8.09,8.06a8.18,8.18,0,0,1-8.32-9c1.49-16.41,3-32.81,4.82-49.18,1.25-11,1.44-21.94-.93-32.77-.66-3,.15-4.4,2.44-6.13,21.81-16.4,40.48-35.6,52.82-60.3A151.71,151.71,0,0,0,441,283c.12-1,.27-2,.43-3A13.41,13.41,0,0,1,442,278.62Z"/><path class="cls-1" d="M531,80.85a29.64,29.64,0,1,1-29.49-29.64A29.56,29.56,0,0,1,531,80.85Z"/><path class="cls-1" d="M118.52,209.78a29.64,29.64,0,1,1,29.68,29.8A29.63,29.63,0,0,1,118.52,209.78Z"/><path class="cls-1" d="M605.21,208.73a29.63,29.63,0,1,1-29.83-29.58A29.44,29.44,0,0,1,605.21,208.73Z"/><path class="cls-2" d="M117.1,272.86c1.62-4,4.48-5.73,8.83-6.27,19.14-2.36,35.09-11.13,47.8-25.47,14-15.77,15.21-33.92,9.09-53.32-4.67-14.8-14.5-25.36-27-33.86-3.08-2.11-6.28-4.07-9.48-6-5.77-3.48-6.91-6.95-3.81-11.91,2.9-4.64,7.52-5.44,12.57-2,10.57,7.3,21,14.78,31.63,22q12.94,8.85,26.14,17.32a19.19,19.19,0,0,0,7.2,3c6.33,1,7.3,5,8.06,10.55,4.37,31.95,14.51,61.7,36.46,86.13,7.8,8.67,17,16,25.64,24a18.78,18.78,0,0,1,2.65,2.49c-34.4-5-64.18-18.26-85.27-47.65-3.47,2.15-6.87,4.13-10.14,6.32-21,14-44.57,20.81-69.07,25.07-6.8,1.18-8.5.17-11.33-6Z"/><path class="cls-2" d="M606.59,275.11c-2.92,7.63-5.48,9.06-13.31,6.91q-24.15-6.63-48.25-13.47a93.92,93.92,0,0,0-29.56-3.85c-2.58.11-3.86-.59-5.09-3-12.33-24.32-27.94-46.09-50.05-62.6a154.3,154.3,0,0,0-49.8-24.37c-.59-.17-1.16-.39-1.74-.61-.08,0-.11-.2-.17-.3,29.72-6.49,63.46-6.51,96.66,15.53q7.44-9,14.92-18.13c13.79-16.86,31.9-28.17,50.36-39,5-2.92,8.87-1.41,11.38,3.7s1,9.15-4.19,11.7c-13.92,6.8-24.39,17.24-32,30.55-13.39,23.35-10.57,46.09,7.54,66.48,10.61,12,24.47,17.18,39.38,20.67a55.45,55.45,0,0,0,6.24,1.22,9,9,0,0,1,7.7,5.57Z"/><path class="cls-2" d="M365.22,0l5.33,1.53a29.8,29.8,0,0,1,20.76,34.76c-3.23,15.39-17.83,25.24-34,23-14.71-2.09-25.69-16.16-24.53-31.41A29.29,29.29,0,0,1,354.64,1.4C356.18,1,357.7.47,359.22,0Z"/><path class="cls-2" d="M350,162.93c22.46-28.08,48.86-47.63,84.76-51.28,0-6.34.24-12.43-.05-18.49-1.11-23.46,5.46-45.4,13.14-67.11,2-5.6,5.75-7.13,10.9-5,5.34,2.18,7,6.4,4.68,11.84-7.68,17.76-8.08,35.92-2.16,54.1,6.77,20.79,22.39,31.11,43.11,35.28,15.82,3.18,30.13-1,44-7.91,3-1.5,5.9-3.26,8.88-4.82,4.49-2.35,7.62-1.58,10.29,2.43s2.12,8.44-1.5,11.35a12.18,12.18,0,0,1-2.56,1.52c-14.82,6.85-29.56,13.9-44.51,20.46-10.28,4.5-19.78,10.07-28,17.65-1.68,1.55-2.87,1.56-4.84.71-20.78-9-42.35-14.89-65-15.87C396.58,146.72,373.34,152.27,350,162.93Z"/><path class="cls-2" d="M344.36,331.11c-30.1,18.07-61.64,26.95-96.84,17.83-1.36,4.1-2.74,7.93-3.91,11.82-7.28,24-21.11,44.2-37.15,63.06C202,429,198,429.48,193.71,425.5s-4.09-8.38.31-13.3c16.34-18.27,23.48-39.41,19-63.83-1.51-8.27-5.77-15.41-11.56-21.47-14.47-15.15-32-22.52-53.15-20.56-5,.46-9.91,1.09-14.86,1.71-6.43.81-9.49-1.35-10.2-7.31-.58-4.88,3-8.69,8.69-9.12,19.65-1.49,39.35-2.63,58.95-4.63,7.34-.75,14.54-3.3,21.66-5.49,2.48-.76,3.85-.69,5.78,1.14,18.66,17.67,39.35,32.27,63.92,40.64a148,148,0,0,0,59.36,7.48c.62,0,1.25-.1,1.87-.1C343.66,330.66,343.85,330.84,344.36,331.11Z"/><path class="cls-2" d="M549.42,383.16a29.64,29.64,0,1,1,.48-59.27,29.64,29.64,0,1,1-.48,59.27Z"/><path class="cls-2" d="M318.07,450.62a29.63,29.63,0,0,1-59.26-.37,29.63,29.63,0,1,1,59.26.37Z"/><path class="cls-2" d="M252.94,80.29A29.67,29.67,0,0,1,223.18,110a29.68,29.68,0,1,1,.38-59.35A29.39,29.39,0,0,1,252.94,80.29Z"/><path class="cls-2" d="M465.89,449.81a29.68,29.68,0,0,1-29.38,29.74c-16.19.17-29.93-13.47-29.93-29.73a29.8,29.8,0,0,1,29.92-29.64A29.44,29.44,0,0,1,465.89,449.81Z"/><path class="cls-1" d="M175.36,384.14a29.72,29.72,0,0,1-30.24-29.28c-.34-16,12.75-29.54,29.16-30.07,16.1-.51,29.88,12.87,30.24,29.37C204.87,370.23,191.72,383.75,175.36,384.14Z"/><text class="cls-3" transform="translate(112.96 694.14)">Live in Nature&apos;s Crown</text><path class="cls-1" d="M69.82,611a40.46,40.46,0,0,1-14.55-2.56A33.78,33.78,0,0,1,35.94,590a37,37,0,0,1,0-28,33.58,33.58,0,0,1,7.73-11.11,34.71,34.71,0,0,1,11.7-7.3A40.46,40.46,0,0,1,69.92,541a40.35,40.35,0,0,1,16,3,30.94,30.94,0,0,1,12,8.94L87.7,562.27a23,23,0,0,0-7.68-6,21.65,21.65,0,0,0-9.33-2,23,23,0,0,0-8.7,1.6A20.11,20.11,0,0,0,50.63,567.2a25.15,25.15,0,0,0,0,17.6A20.17,20.17,0,0,0,62,596.16a23.14,23.14,0,0,0,8.7,1.59A21.12,21.12,0,0,0,80,595.67a23.51,23.51,0,0,0,7.68-6l10.15,9.28a31.35,31.35,0,0,1-12,9A40.09,40.09,0,0,1,69.82,611Z"/><path class="cls-1" d="M141.06,611a40.75,40.75,0,0,1-14.79-2.61A35.69,35.69,0,0,1,114.48,601a33.18,33.18,0,0,1-7.78-11.12,36.61,36.61,0,0,1,0-27.89A33.28,33.28,0,0,1,114.48,551a35.94,35.94,0,0,1,11.74-7.34A40.42,40.42,0,0,1,141,541a41,41,0,0,1,14.74,2.56,35.19,35.19,0,0,1,11.74,7.3A33.14,33.14,0,0,1,175.23,562a36.86,36.86,0,0,1,0,28,32.84,32.84,0,0,1-7.78,11.16,35,35,0,0,1-11.74,7.3A40.74,40.74,0,0,1,141.06,611ZM141,597.75a21.58,21.58,0,0,0,8.36-1.59,20.5,20.5,0,0,0,6.72-4.55,20.87,20.87,0,0,0,4.49-6.86,24.73,24.73,0,0,0,0-17.5,21,21,0,0,0-4.49-6.86,20.32,20.32,0,0,0-6.72-4.54,21.4,21.4,0,0,0-8.36-1.6,21.69,21.69,0,0,0-8.41,1.6,19.53,19.53,0,0,0-6.72,4.54,21.36,21.36,0,0,0-4.45,6.86,24.87,24.87,0,0,0,0,17.5,21.25,21.25,0,0,0,4.45,6.86,19.7,19.7,0,0,0,6.72,4.55A21.87,21.87,0,0,0,141,597.75Z"/><path class="cls-1" d="M212.11,611a55.69,55.69,0,0,1-15.61-2.17,36.32,36.32,0,0,1-12-5.66l5.31-11.79A36.89,36.89,0,0,0,200,596.45a38.26,38.26,0,0,0,12.08,2,23.67,23.67,0,0,0,7.49-1,9.29,9.29,0,0,0,4.21-2.56,5.57,5.57,0,0,0,1.35-3.72,5.1,5.1,0,0,0-2.12-4.3,17.23,17.23,0,0,0-5.66-2.61c-2.35-.68-4.91-1.32-7.68-1.94s-5.56-1.35-8.37-2.22a33.69,33.69,0,0,1-7.73-3.48,16.45,16.45,0,0,1-5.61-5.7,17.28,17.28,0,0,1-2.07-8.85A19.08,19.08,0,0,1,189,551.5a21.14,21.14,0,0,1,9.42-7.64q6.33-2.85,15.91-2.85A52.25,52.25,0,0,1,227,542.55,37.76,37.76,0,0,1,237.83,547l-4.93,11.79a39.45,39.45,0,0,0-9.38-3.91,35.61,35.61,0,0,0-9.28-1.31,22.24,22.24,0,0,0-7.44,1,8.73,8.73,0,0,0-4.11,2.75,6.3,6.3,0,0,0-1.31,3.87,5.21,5.21,0,0,0,2.13,4.35,15.54,15.54,0,0,0,5.61,2.56c2.32.62,4.89,1.23,7.73,1.84a85.62,85.62,0,0,1,8.41,2.27,37.68,37.68,0,0,1,7.64,3.43,16.57,16.57,0,0,1,5.65,5.61,16.39,16.39,0,0,1,2.18,8.75,18.47,18.47,0,0,1-3.15,10.44,21.78,21.78,0,0,1-9.52,7.63Q221.69,611,212.11,611Z"/><path class="cls-1" d="M251.36,609.83V542.17h12.95l28.81,47.75h-6.86l28.22-47.75h13v67.66H312.94l-.2-45.14h2.9l-22.81,37.89h-7l-23.1-37.89H266v45.14Z"/><path class="cls-1" d="M343.58,609.83V542.17h15.75v67.66Z"/><path class="cls-1" d="M407.67,611a40.46,40.46,0,0,1-14.55-2.56A33.84,33.84,0,0,1,373.78,590a37.11,37.11,0,0,1,0-28,33.6,33.6,0,0,1,7.74-11.11,34.71,34.71,0,0,1,11.7-7.3,43,43,0,0,1,30.49.48,30.9,30.9,0,0,1,12,8.94l-10.15,9.28a23,23,0,0,0-7.69-6,21.57,21.57,0,0,0-9.32-2,23,23,0,0,0-8.7,1.6,20,20,0,0,0-11.36,11.35,25,25,0,0,0,0,17.6,20.27,20.27,0,0,0,4.49,6.86,20.49,20.49,0,0,0,6.87,4.5,23.14,23.14,0,0,0,8.7,1.59,21,21,0,0,0,9.32-2.08,23.55,23.55,0,0,0,7.69-6l10.15,9.28a31.31,31.31,0,0,1-12,9A40.08,40.08,0,0,1,407.67,611Z"/><path class="cls-1" d="M505.78,611a40.46,40.46,0,0,1-14.55-2.56A33.86,33.86,0,0,1,471.9,590a37.11,37.11,0,0,1,0-28,33.58,33.58,0,0,1,7.73-11.11,34.71,34.71,0,0,1,11.7-7.3,43,43,0,0,1,30.5.48,31,31,0,0,1,12,8.94l-10.15,9.28a23,23,0,0,0-7.69-6,21.65,21.65,0,0,0-9.33-2,23,23,0,0,0-8.7,1.6,20.11,20.11,0,0,0-11.36,11.35,25.15,25.15,0,0,0,0,17.6A20.17,20.17,0,0,0,498,596.16a23.14,23.14,0,0,0,8.7,1.59,21.12,21.12,0,0,0,9.33-2.08,23.55,23.55,0,0,0,7.69-6l10.15,9.28a31.39,31.39,0,0,1-12,9A40.09,40.09,0,0,1,505.78,611Z"/><path class="cls-1" d="M544.16,609.83V542.17h15.75v67.66Z"/><path class="cls-1" d="M589.88,609.83v-54.9H568.23V542.17h59v12.76H605.54v54.9Z"/><path class="cls-1" d="M652.42,609.83V582.19l3.58,9.47-29.87-49.49h16.72l22.82,37.89H656.1L679,542.17h15.27L664.6,591.66l3.58-9.47v27.64Z"/><line class="cls-1" y1="638.48" x2="723.69" y2="638.48"/></g></g></svg>