<svg xmlns="http://www.w3.org/2000/svg" viewBox="0 0 489.5 492.67"><defs><style>.cls-1{fill:#fff;}.cls-2{fill:#4fbb7d;}</style></defs><g id="Layer_2" data-name="Layer 2"><g id="Layer_1-2" data-name="Layer 1"><path class="cls-1" d="M182.09,189.67c-.66-25.25,1.6-61.93,31.77-93.8-5.28-6.12-10.58-12.23-15.83-18.38C186.36,63.81,179,47.76,172.4,31.24c-1.28-3.24-2.71-6.44-3.68-9.78-1.51-5.17.49-8.6,5.47-10.07,5.25-1.55,9.48.47,10.9,5.54a71.11,71.11,0,0,0,16.76,29.69c10.17,10.93,21.84,19.7,37.25,21a57.72,57.72,0,0,0,19.2-1.58c18.29-4.78,32.14-15.62,40.59-32.78,2.59-5.24,4.82-10.66,7-16.09,2.45-6.13,5.71-7.86,11.19-5.58,4.8,2,6.48,6.55,4,11.82-6.82,14.69-13.57,29.42-20.75,43.94-5.08,10.26-9.11,20.77-10.36,32.18-.29,2.6-1.8,3.18-3.8,3.76A197.51,197.51,0,0,0,245,120.72c-27.51,15.34-47.47,37.71-61.32,65.78Z"/><path class="cls-1" d="M326.35,219.67c30.78,16.77,54.5,39.37,64.34,74,7.93-1.51,15.62-2.9,23.28-4.45,17.55-3.56,35-2,52.53.4,3.71.51,7.43,1,11.08,1.8,5.61,1.23,7.67,4.47,6.5,9.75S479.17,309,473.86,308c-3.31-.6-6.59-1.49-9.92-1.78-18.84-1.65-36.37,2.36-51.62,13.71-15,11.15-19.71,27.11-19.84,45.13-.13,17.77,8.33,31.72,18.75,45,.85,1.08,1.77,2.11,2.62,3.18,3.66,4.58,3.39,8.11-.86,11.64-4,3.28-8.9,2.84-12.07-1.59-9.15-12.79-18.37-25.54-27.05-38.64-6.83-10.29-14.43-19.71-24.24-27.31-.88-.68-1.33-2.76-1.06-4a210.24,210.24,0,0,0,5.33-50.87c-.62-29.05-10-55.2-25.83-79.28-.62-.93-1.23-1.87-1.83-2.81C326.2,220.31,326.27,220.17,326.35,219.67Z"/><path class="cls-1" d="M158.54,242.32c-22.89-26.5-37.2-56-34.17-91.77-10.87-2.06-21.45-3.73-31.87-6.12-16-3.66-30.27-11.36-44.48-19.2-2-1.08-4-2.1-5.84-3.35-4.7-3.16-5.45-6.9-2.46-11.47s7.44-5.74,11.89-2.67a70.19,70.19,0,0,0,29.25,11.78c17.82,2.84,35.31,2.1,49.49-10.61,17.34-15.53,24.17-35.33,19.88-58.43-1.25-6.7-3.44-13.24-5.41-19.79-1.75-5.8-.34-9.27,4.84-11s9.41.58,10.85,6.12C165.06,43.3,169,61,174,78.28c2.58,8.88,6.82,17.31,10.69,25.77,1.06,2.3,1.41,3.63-.09,5.9-13.37,20.1-23.59,41.6-28.21,65.48-4.17,21.54-2.95,42.94,2,64.21.14.61.34,1.2.44,1.81C158.9,241.64,158.72,241.86,158.54,242.32Z"/><path class="cls-1" d="M223.64,399c3.87,11.12,7.88,21.72,11.23,32.52,3.75,12.11,4.55,24.73,5,37.34a155.8,155.8,0,0,1,.32,15.72c-.43,7-6.93,10.13-13,6.69-3.37-1.91-4.09-5-3.88-8.66C224.41,464,219,447.35,208,432.51c-12-16.21-28.37-22.12-48.18-20.6s-34.24,11.86-46.81,26c-1.33,1.49-2.58,3.05-3.94,4.52-3.51,3.79-7,4.13-10.83,1.1s-4.6-7.29-2-11.27a15.13,15.13,0,0,1,2.21-2.53c11.93-11.73,23.8-23.53,35.86-35.12,7.18-6.9,13.61-14.38,18.08-23.24,1.85-3.66,4-4,7.57-3.83,24.54,1.45,48.61-1.1,71.76-9.77,19.31-7.24,36.14-18.49,51.08-32.62.72-.68,1.46-1.35,2.2-2,.06-.05.21,0,.61,0C274.32,356.21,256.1,383.49,223.64,399Z"/><path class="cls-1" d="M324.87,278.62c12.67,32.9,16.2,65.5,1.18,98.51,5.87,3.25,11.57,6.51,17.36,9.61,20.35,10.92,35.75,27.41,50.33,44.8,3.68,4.4,2.93,8.51-1.63,11.87-4.31,3.18-8.82,2.53-12.07-1.83-12.9-17.32-30.17-27.38-51.44-30.27-15.79-2.14-29.08,3.73-40.67,14.18-13.34,12-19.82,27.21-21,44.89-.3,4.36-.46,8.73-.62,13.09-.21,5.55-2.81,8.16-8.09,8.06a8.18,8.18,0,0,1-8.32-9c1.49-16.41,3-32.81,4.83-49.18,1.25-11,1.44-21.94-.94-32.77-.66-3,.15-4.4,2.45-6.13C278,378,296.69,358.8,309,334.1A151.71,151.71,0,0,0,323.94,283c.12-1,.27-2,.44-3A12.73,12.73,0,0,1,324.87,278.62Z"/><path class="cls-1" d="M413.85,80.85a29.64,29.64,0,1,1-29.49-29.64A29.56,29.56,0,0,1,413.85,80.85Z"/><path class="cls-1" d="M1.43,209.78a29.63,29.63,0,1,1,29.68,29.8A29.61,29.61,0,0,1,1.43,209.78Z"/><path class="cls-1" d="M488.12,208.73a29.64,29.64,0,1,1-29.83-29.58A29.45,29.45,0,0,1,488.12,208.73Z"/><path class="cls-2" d="M0,272.86c1.62-4,4.48-5.73,8.83-6.27,19.14-2.36,35.09-11.13,47.8-25.47,14-15.77,15.21-33.92,9.09-53.32-4.67-14.8-14.5-25.36-27-33.86-3.09-2.11-6.28-4.07-9.49-6C23.5,144.46,22.36,141,25.46,136c2.9-4.64,7.52-5.44,12.57-2,10.57,7.3,21,14.78,31.63,22Q82.61,165,95.8,173.43a19.26,19.26,0,0,0,7.2,3c6.33,1,7.31,5,8.06,10.55,4.38,31.95,14.51,61.7,36.46,86.13,7.8,8.67,17,16,25.65,24a19.34,19.34,0,0,1,2.65,2.49c-34.4-5-64.19-18.26-85.28-47.65-3.47,2.15-6.87,4.13-10.14,6.32-21,14-44.57,20.81-69.07,25.07-6.79,1.18-8.5.17-11.33-6Z"/><path class="cls-2" d="M489.5,275.11c-2.92,7.63-5.49,9.06-13.32,6.91q-24.15-6.63-48.24-13.47a94,94,0,0,0-29.57-3.85c-2.58.11-3.86-.59-5.09-3-12.33-24.32-27.94-46.09-50-62.6a154.2,154.2,0,0,0-49.8-24.37c-.59-.17-1.16-.39-1.73-.61-.09,0-.12-.2-.18-.3,29.73-6.49,63.46-6.51,96.66,15.53q7.45-9,14.92-18.13c13.79-16.86,31.9-28.17,50.36-39,5-2.92,8.87-1.41,11.39,3.7s1,9.15-4.2,11.7c-13.92,6.8-24.38,17.24-32,30.55-13.39,23.35-10.56,46.09,7.54,66.48,10.61,12,24.47,17.18,39.38,20.67a55.45,55.45,0,0,0,6.24,1.22,9.06,9.06,0,0,1,7.71,5.57Z"/><path class="cls-2" d="M248.12,0l5.33,1.53a29.8,29.8,0,0,1,20.76,34.76c-3.23,15.39-17.83,25.24-34,23-14.7-2.09-25.69-16.16-24.52-31.41A29.28,29.28,0,0,1,237.55,1.4c1.53-.43,3-.93,4.57-1.4Z"/><path class="cls-2" d="M232.94,162.93c22.45-28.08,48.85-47.63,84.75-51.28,0-6.34.25-12.43,0-18.49-1.12-23.46,5.45-45.4,13.13-67.11,2-5.6,5.75-7.13,10.9-5,5.34,2.18,7,6.4,4.68,11.84-7.68,17.76-8.08,35.92-2.16,54.1,6.77,20.79,22.4,31.11,43.11,35.28,15.82,3.18,30.13-1,44-7.91,3-1.5,5.9-3.26,8.88-4.82,4.49-2.35,7.63-1.58,10.29,2.43s2.12,8.44-1.49,11.35a12.51,12.51,0,0,1-2.57,1.52c-14.82,6.85-29.55,13.9-44.51,20.46-10.28,4.5-19.78,10.07-28,17.65-1.69,1.55-2.88,1.56-4.85.71-20.78-9-42.35-14.89-65-15.87C279.48,146.72,256.24,152.27,232.94,162.93Z"/><path class="cls-2" d="M227.26,331.11c-30.09,18.07-61.64,26.95-96.84,17.83-1.36,4.1-2.74,7.93-3.91,11.82-7.27,24-21.11,44.2-37.14,63.06-4.44,5.21-8.44,5.66-12.76,1.68s-4.09-8.38.31-13.3c16.34-18.27,23.48-39.41,19-63.83C94.41,340.1,90.15,333,84.36,326.9c-14.47-15.15-32-22.52-53.15-20.56-5,.46-9.91,1.09-14.85,1.71-6.44.81-9.5-1.35-10.21-7.31-.57-4.88,3-8.69,8.69-9.12,19.66-1.49,39.35-2.63,59-4.63,7.34-.75,14.54-3.3,21.66-5.49,2.48-.76,3.85-.69,5.78,1.14,18.67,17.67,39.35,32.27,63.92,40.64a148,148,0,0,0,59.36,7.48c.62,0,1.25-.1,1.87-.1C226.57,330.66,226.75,330.84,227.26,331.11Z"/><path class="cls-2" d="M432.32,383.16a29.64,29.64,0,1,1,.48-59.27,29.64,29.64,0,1,1-.48,59.27Z"/><path class="cls-2" d="M201,450.62a29.63,29.63,0,0,1-59.26-.37,29.63,29.63,0,1,1,59.26.37Z"/><path class="cls-2" d="M135.84,80.29A29.66,29.66,0,0,1,106.08,110a29.68,29.68,0,1,1,.39-59.35A29.38,29.38,0,0,1,135.84,80.29Z"/><path class="cls-2" d="M348.79,449.81a29.67,29.67,0,0,1-29.38,29.74c-16.19.17-29.93-13.47-29.93-29.73a29.8,29.8,0,0,1,29.92-29.64A29.44,29.44,0,0,1,348.79,449.81Z"/><path class="cls-1" d="M58.26,384.14A29.71,29.71,0,0,1,28,354.86c-.35-16,12.74-29.54,29.15-30.07,16.1-.51,29.88,12.87,30.24,29.37C87.77,370.23,74.63,383.75,58.26,384.14Z"/></g></g></svg>